<svg width="27" height="27" viewBox="0 0 27 27" fill="none" xmlns="http://www.w3.org/2000/svg">
<g clip-path="url(#clip0_84_99)">
<mask id="mask0_84_99" style="mask-type:luminance" maskUnits="userSpaceOnUse" x="0" y="0" width="27" height="27">
<path d="M13.7573 26.5302C20.9281 26.5302 26.7412 20.7172 26.7412 13.5464C26.7412 6.37558 20.9281 0.5625 13.7573 0.5625C6.58651 0.5625 0.773438 6.37558 0.773438 13.5464C0.773438 20.7172 6.58651 26.5302 13.7573 26.5302Z" fill="white"/>
</mask>
<g mask="url(#mask0_84_99)">
<path d="M0.773438 0.5625H26.7412V26.5302H0.773438V0.5625Z" fill="#F8F7F7"/>
</g>
<mask id="mask1_84_99" style="mask-type:luminance" maskUnits="userSpaceOnUse" x="0" y="0" width="27" height="27">
<path d="M13.7573 26.5302C20.9281 26.5302 26.7412 20.7172 26.7412 13.5464C26.7412 6.37558 20.9281 0.5625 13.7573 0.5625C6.58651 0.5625 0.773438 6.37558 0.773438 13.5464C0.773438 20.7172 6.58651 26.5302 13.7573 26.5302Z" fill="white"/>
</mask>
<g mask="url(#mask1_84_99)">
<path d="M0.773438 0.5625H26.7412V2.5608H0.773438V0.5625Z" fill="#EA6568"/>
</g>
<mask id="mask2_84_99" style="mask-type:luminance" maskUnits="userSpaceOnUse" x="0" y="0" width="27" height="27">
<path d="M13.7573 26.5302C20.9281 26.5302 26.7412 20.7172 26.7412 13.5464C26.7412 6.37558 20.9281 0.5625 13.7573 0.5625C6.58651 0.5625 0.773438 6.37558 0.773438 13.5464C0.773438 20.7172 6.58651 26.5302 13.7573 26.5302Z" fill="white"/>
</mask>
<g mask="url(#mask2_84_99)">
<path d="M0.773438 2.56055H26.7412V4.55885H0.773438V2.56055Z" fill="#F8F7F7"/>
</g>
<mask id="mask3_84_99" style="mask-type:luminance" maskUnits="userSpaceOnUse" x="0" y="0" width="27" height="27">
<path d="M13.7573 26.5302C20.9281 26.5302 26.7412 20.7172 26.7412 13.5464C26.7412 6.37558 20.9281 0.5625 13.7573 0.5625C6.58651 0.5625 0.773438 6.37558 0.773438 13.5464C0.773438 20.7172 6.58651 26.5302 13.7573 26.5302Z" fill="white"/>
</mask>
<g mask="url(#mask3_84_99)">
<path d="M0.773438 4.55859H26.7412V6.55689H0.773438V4.55859Z" fill="#EA6568"/>
</g>
<mask id="mask4_84_99" style="mask-type:luminance" maskUnits="userSpaceOnUse" x="0" y="0" width="27" height="27">
<path d="M13.7573 26.5302C20.9281 26.5302 26.7412 20.7172 26.7412 13.5464C26.7412 6.37558 20.9281 0.5625 13.7573 0.5625C6.58651 0.5625 0.773438 6.37558 0.773438 13.5464C0.773438 20.7172 6.58651 26.5302 13.7573 26.5302Z" fill="white"/>
</mask>
<g mask="url(#mask4_84_99)">
<path d="M0.773438 6.55664H26.7412V8.55494H0.773438V6.55664Z" fill="#F8F7F7"/>
</g>
<mask id="mask5_84_99" style="mask-type:luminance" maskUnits="userSpaceOnUse" x="0" y="0" width="27" height="27">
<path d="M13.7573 26.5302C20.9281 26.5302 26.7412 20.7172 26.7412 13.5464C26.7412 6.37558 20.9281 0.5625 13.7573 0.5625C6.58651 0.5625 0.773438 6.37558 0.773438 13.5464C0.773438 20.7172 6.58651 26.5302 13.7573 26.5302Z" fill="white"/>
</mask>
<g mask="url(#mask5_84_99)">
<path d="M0.773438 8.55054H26.7412V10.5488H0.773438V8.55054Z" fill="#EA6568"/>
</g>
<mask id="mask6_84_99" style="mask-type:luminance" maskUnits="userSpaceOnUse" x="0" y="0" width="27" height="27">
<path d="M13.7573 26.5302C20.9281 26.5302 26.7412 20.7172 26.7412 13.5464C26.7412 6.37558 20.9281 0.5625 13.7573 0.5625C6.58651 0.5625 0.773438 6.37558 0.773438 13.5464C0.773438 20.7172 6.58651 26.5302 13.7573 26.5302Z" fill="white"/>
</mask>
<g mask="url(#mask6_84_99)">
<path d="M0.773438 10.5488H26.7412V12.5471H0.773438V10.5488Z" fill="#F8F7F7"/>
</g>
<mask id="mask7_84_99" style="mask-type:luminance" maskUnits="userSpaceOnUse" x="0" y="0" width="27" height="27">
<path d="M13.7573 26.5302C20.9281 26.5302 26.7412 20.7172 26.7412 13.5464C26.7412 6.37558 20.9281 0.5625 13.7573 0.5625C6.58651 0.5625 0.773438 6.37558 0.773438 13.5464C0.773438 20.7172 6.58651 26.5302 13.7573 26.5302Z" fill="white"/>
</mask>
<g mask="url(#mask7_84_99)">
<path d="M0.773438 12.5469H26.7412V14.5452H0.773438V12.5469Z" fill="#EA6568"/>
</g>
<mask id="mask8_84_99" style="mask-type:luminance" maskUnits="userSpaceOnUse" x="0" y="0" width="27" height="27">
<path d="M13.7573 26.5302C20.9281 26.5302 26.7412 20.7172 26.7412 13.5464C26.7412 6.37558 20.9281 0.5625 13.7573 0.5625C6.58651 0.5625 0.773438 6.37558 0.773438 13.5464C0.773438 20.7172 6.58651 26.5302 13.7573 26.5302Z" fill="white"/>
</mask>
<g mask="url(#mask8_84_99)">
<path d="M0.773438 14.5449H26.7412V16.5432H0.773438V14.5449Z" fill="#F8F7F7"/>
</g>
<mask id="mask9_84_99" style="mask-type:luminance" maskUnits="userSpaceOnUse" x="0" y="0" width="27" height="27">
<path d="M13.7573 26.5302C20.9281 26.5302 26.7412 20.7172 26.7412 13.5464C26.7412 6.37558 20.9281 0.5625 13.7573 0.5625C6.58651 0.5625 0.773438 6.37558 0.773438 13.5464C0.773438 20.7172 6.58651 26.5302 13.7573 26.5302Z" fill="white"/>
</mask>
<g mask="url(#mask9_84_99)">
<path d="M0.773438 16.543H26.7412V18.5413H0.773438V16.543Z" fill="#EA6568"/>
</g>
<mask id="mask10_84_99" style="mask-type:luminance" maskUnits="userSpaceOnUse" x="0" y="0" width="27" height="27">
<path d="M13.7573 26.5302C20.9281 26.5302 26.7412 20.7172 26.7412 13.5464C26.7412 6.37558 20.9281 0.5625 13.7573 0.5625C6.58651 0.5625 0.773438 6.37558 0.773438 13.5464C0.773438 20.7172 6.58651 26.5302 13.7573 26.5302Z" fill="white"/>
</mask>
<g mask="url(#mask10_84_99)">
<path d="M0.773438 18.543H26.7412V20.5413H0.773438V18.543Z" fill="#F8F7F7"/>
</g>
<mask id="mask11_84_99" style="mask-type:luminance" maskUnits="userSpaceOnUse" x="0" y="0" width="27" height="27">
<path d="M13.7573 26.5302C20.9281 26.5302 26.7412 20.7172 26.7412 13.5464C26.7412 6.37558 20.9281 0.5625 13.7573 0.5625C6.58651 0.5625 0.773438 6.37558 0.773438 13.5464C0.773438 20.7172 6.58651 26.5302 13.7573 26.5302Z" fill="white"/>
</mask>
<g mask="url(#mask11_84_99)">
<path d="M0.773438 20.5354H26.7412V22.5337H0.773438V20.5354Z" fill="#EA6568"/>
</g>
<mask id="mask12_84_99" style="mask-type:luminance" maskUnits="userSpaceOnUse" x="0" y="0" width="27" height="27">
<path d="M13.7573 26.5302C20.9281 26.5302 26.7412 20.7172 26.7412 13.5464C26.7412 6.37558 20.9281 0.5625 13.7573 0.5625C6.58651 0.5625 0.773438 6.37558 0.773438 13.5464C0.773438 20.7172 6.58651 26.5302 13.7573 26.5302Z" fill="white"/>
</mask>
<g mask="url(#mask12_84_99)">
<path d="M0.773438 22.5332H26.7412V24.5315H0.773438V22.5332Z" fill="#F8F7F7"/>
</g>
<mask id="mask13_84_99" style="mask-type:luminance" maskUnits="userSpaceOnUse" x="0" y="0" width="27" height="27">
<path d="M13.7573 26.5302C20.9281 26.5302 26.7412 20.7172 26.7412 13.5464C26.7412 6.37558 20.9281 0.5625 13.7573 0.5625C6.58651 0.5625 0.773438 6.37558 0.773438 13.5464C0.773438 20.7172 6.58651 26.5302 13.7573 26.5302Z" fill="white"/>
</mask>
<g mask="url(#mask13_84_99)">
<path d="M0.773438 24.5312H26.7412V26.5295H0.773438V24.5312Z" fill="#EA6568"/>
</g>
<mask id="mask14_84_99" style="mask-type:luminance" maskUnits="userSpaceOnUse" x="0" y="0" width="27" height="27">
<path d="M13.7573 26.5302C20.9281 26.5302 26.7412 20.7172 26.7412 13.5464C26.7412 6.37558 20.9281 0.5625 13.7573 0.5625C6.58651 0.5625 0.773438 6.37558 0.773438 13.5464C0.773438 20.7172 6.58651 26.5302 13.7573 26.5302Z" fill="white"/>
</mask>
<g mask="url(#mask14_84_99)">
<path d="M-4.35938 0.5625H14.8223V14.5455H-4.35938V0.5625Z" fill="#455BA4"/>
</g>
<mask id="mask15_84_99" style="mask-type:luminance" maskUnits="userSpaceOnUse" x="0" y="0" width="27" height="27">
<path d="M13.7573 26.5302C20.9281 26.5302 26.7412 20.7172 26.7412 13.5464C26.7412 6.37558 20.9281 0.5625 13.7573 0.5625C6.58651 0.5625 0.773438 6.37558 0.773438 13.5464C0.773438 20.7172 6.58651 26.5302 13.7573 26.5302Z" fill="white"/>
</mask>
<g mask="url(#mask15_84_99)">
<path d="M2.33074 3.57051L2.67055 3.32199C2.70098 3.3017 2.68577 3.25606 2.65026 3.25606H2.2293L2.1938 3.23577L2.06193 2.83509C2.05179 2.79959 2.00614 2.79959 1.99093 2.83509L1.85906 3.23577L1.82356 3.26113H1.40259C1.36709 3.26113 1.35188 3.30677 1.38231 3.32706L1.72212 3.57558L1.73733 3.61616L1.61561 4.01176C1.60547 4.04726 1.64097 4.07262 1.6714 4.05233L2.01121 3.80381H2.05179L2.3916 4.05233C2.42203 4.07262 2.45753 4.04726 2.44739 4.01176L2.31552 3.61108L2.33074 3.57051ZM5.51584 3.57051L5.85566 3.32199C5.88609 3.3017 5.87087 3.25606 5.83537 3.25606H5.41441L5.3789 3.2307L5.24704 2.83002C5.23689 2.79452 5.19125 2.79452 5.17603 2.83002L5.04416 3.2307L5.00866 3.25606H4.5877C4.5522 3.25606 4.53698 3.3017 4.56741 3.32199L4.90723 3.57051L4.92244 3.61108L4.80072 4.01176C4.79057 4.04726 4.82608 4.07262 4.85651 4.05233L5.19632 3.80381H5.23689L5.57671 4.05233C5.60714 4.07262 5.64264 4.04726 5.6325 4.01176L5.50063 3.61108L5.51584 3.57051ZM8.70095 3.57051L9.04076 3.32199C9.07119 3.3017 9.05598 3.25606 9.02047 3.25606H8.59951L8.56401 3.2307L8.43214 2.83002C8.422 2.79452 8.37635 2.79452 8.36114 2.83002L8.22927 3.2307L8.19377 3.25606H7.77281C7.7373 3.25606 7.72209 3.3017 7.75252 3.32199L8.09233 3.57051L8.10755 3.61108L7.97568 4.01176C7.96554 4.04726 8.00104 4.07262 8.03147 4.05233L8.37128 3.80381H8.41186L8.75167 4.05233C8.7821 4.07262 8.8176 4.04726 8.80746 4.01176L8.67559 3.61108L8.70095 3.57051ZM0.738185 2.21633L1.078 1.96781C1.10843 1.94753 1.09321 1.90188 1.05771 1.90188H0.636748L0.601246 1.87652L0.469378 1.47585C0.459235 1.44034 0.413588 1.44034 0.398373 1.47585L0.266505 1.87652L0.231002 1.90188H-0.189959C-0.225462 1.90188 -0.240677 1.94753 -0.210246 1.96781L0.129566 2.21633L0.144781 2.25691L0.012914 2.65758C0.00277033 2.69308 0.0382731 2.71844 0.0687041 2.69816L0.408516 2.44964H0.449091L0.799047 2.69308C0.829478 2.71337 0.864981 2.68801 0.854837 2.65251L0.722969 2.25183L0.738185 2.21633ZM3.93343 2.21633L4.27325 1.96781C4.30368 1.94753 4.28846 1.90188 4.25296 1.90188H3.832L3.79649 1.87652L3.66463 1.47585C3.65448 1.44034 3.60884 1.44034 3.59362 1.47585L3.46175 1.87652L3.42625 1.90188H3.00529C2.96979 1.90188 2.95457 1.94753 2.985 1.96781L3.32482 2.21633L3.34003 2.25691L3.20816 2.65758C3.19802 2.69308 3.23352 2.71844 3.26395 2.69816L3.60377 2.44964H3.64434L3.98415 2.69816C4.01458 2.71844 4.05009 2.69308 4.03994 2.65758L3.91822 2.25691L3.93343 2.21633ZM7.12868 2.21633L7.4685 1.96781C7.49893 1.94753 7.48371 1.90188 7.44821 1.90188H7.02725L6.99174 1.87652L6.85988 1.47585C6.84973 1.44034 6.80409 1.44034 6.78887 1.47585L6.657 1.87652L6.6215 1.90188H6.20054C6.16504 1.90188 6.14982 1.94753 6.18025 1.96781L6.52006 2.21633L6.53528 2.25691L6.40341 2.65758C6.39327 2.69308 6.42877 2.71844 6.4592 2.69816L6.79902 2.44964H6.83959L7.1794 2.69816C7.20983 2.71844 7.24534 2.69308 7.23519 2.65758L7.10332 2.25691L7.12868 2.21633ZM10.3189 2.21633L10.6587 1.96781C10.6891 1.94753 10.6739 1.90188 10.6384 1.90188H10.2174L10.1819 1.87652L10.0501 1.47585C10.0399 1.44034 9.99426 1.44034 9.97905 1.47585L9.84718 1.87652L9.81168 1.90188H9.39072C9.35521 1.90188 9.34 1.94753 9.37043 1.96781L9.71024 2.21633L9.72546 2.25691L9.59359 2.65758C9.58345 2.69308 9.61895 2.71844 9.64938 2.69816L9.98919 2.44964H10.0298L10.3696 2.69816C10.4 2.71844 10.4355 2.69308 10.4254 2.65758L10.2935 2.25691L10.3189 2.21633ZM2.33074 6.3093L2.67055 6.06078C2.70098 6.04049 2.68577 5.99484 2.65026 5.99484H2.2293L2.1938 5.96948L2.06193 5.56881C2.05179 5.53331 2.00614 5.53331 1.99093 5.56881L1.85906 5.96948L1.82356 5.99484H1.40259C1.36709 5.99484 1.35188 6.04049 1.38231 6.06078L1.72212 6.3093L1.73733 6.34987L1.60547 6.75054C1.59532 6.78605 1.63083 6.81141 1.66126 6.79112L2.00107 6.5426H2.04164L2.38146 6.79112C2.41189 6.81141 2.44739 6.78605 2.43725 6.75054L2.30538 6.34987L2.33074 6.3093ZM5.51584 6.3093L5.85566 6.06078C5.88609 6.04049 5.87087 5.99484 5.83537 5.99484H5.41441L5.3789 5.96948L5.24704 5.56881C5.23689 5.53331 5.19125 5.53331 5.17603 5.56881L5.04416 5.96948L5.00866 5.99484H4.5877C4.5522 5.99484 4.53698 6.04049 4.56741 6.06078L4.90723 6.3093L4.92244 6.34987L4.79057 6.75054C4.78043 6.78605 4.81593 6.81141 4.84636 6.79112L5.18618 6.5426H5.23689L5.57671 6.79112C5.60714 6.81141 5.64264 6.78605 5.6325 6.75054L5.50063 6.34987L5.51584 6.3093ZM8.70095 6.3093L9.04076 6.06078C9.07119 6.04049 9.05598 5.99484 9.02047 5.99484H8.59951L8.56401 5.96948L8.43214 5.56881C8.422 5.53331 8.37635 5.53331 8.36114 5.56881L8.22927 5.96948L8.19377 5.99484H7.77281C7.7373 5.99484 7.72209 6.04049 7.75252 6.06078L8.09233 6.3093L8.10755 6.34987L7.97568 6.75054C7.96554 6.78605 8.00104 6.81141 8.03147 6.79112L8.37128 6.5426H8.41186L8.75167 6.79112C8.7821 6.81141 8.8176 6.78605 8.80746 6.75054L8.67559 6.34987L8.70095 6.3093ZM0.738185 4.95512L1.078 4.7066C1.10843 4.68631 1.09321 4.64066 1.05771 4.64066H0.636748L0.601246 4.61531L0.469378 4.21463C0.459235 4.17913 0.413588 4.17913 0.398373 4.21463L0.266505 4.61531L0.231002 4.64066H-0.189959C-0.225462 4.64066 -0.240677 4.68631 -0.210246 4.7066L0.129566 4.95512L0.144781 4.99569L0.012914 5.39637C0.00277033 5.43187 0.0382731 5.45723 0.0687041 5.43694L0.408516 5.18842H0.449091L0.799047 5.43187C0.829478 5.45216 0.864981 5.4268 0.854837 5.39129L0.722969 4.99062L0.738185 4.95512ZM3.93343 4.95512L4.27325 4.7066C4.30368 4.68631 4.28846 4.64066 4.25296 4.64066H3.832L3.79649 4.61531L3.66463 4.21463C3.65448 4.17913 3.60884 4.17913 3.59362 4.21463L3.46175 4.61531L3.42625 4.64066H3.00529C2.96979 4.64066 2.95457 4.68631 2.985 4.7066L3.32482 4.95512L3.34003 4.99569L3.20816 5.39637C3.19802 5.43187 3.23352 5.45723 3.26395 5.43694L3.60377 5.18842H3.64434L3.98415 5.43694C4.01458 5.45723 4.05009 5.43187 4.03994 5.39637L3.91822 4.99569L3.93343 4.95512ZM7.12868 4.95512L7.4685 4.7066C7.49893 4.68631 7.48371 4.64066 7.44821 4.64066H7.02725L6.99174 4.61531L6.85988 4.21463C6.84973 4.17913 6.80409 4.17913 6.78887 4.21463L6.657 4.61531L6.6215 4.64066H6.20054C6.16504 4.64066 6.14982 4.68631 6.18025 4.7066L6.52006 4.95512L6.53528 4.99569L6.40341 5.39637C6.39327 5.43187 6.42877 5.45723 6.4592 5.43694L6.79902 5.18842H6.83959L7.1794 5.43694C7.20983 5.45723 7.24534 5.43187 7.23519 5.39637L7.10332 4.99569L7.12868 4.95512ZM10.3189 4.95512L10.6587 4.7066C10.6891 4.68631 10.6739 4.64066 10.6384 4.64066H10.2174L10.1819 4.61531L10.0501 4.21463C10.0399 4.17913 9.99426 4.17913 9.97905 4.21463L9.84718 4.61531L9.81168 4.64066H9.39072C9.35521 4.64066 9.34 4.68631 9.37043 4.7066L9.71024 4.95512L9.72546 4.99569L9.59359 5.39637C9.58345 5.43187 9.61895 5.45723 9.64938 5.43694L9.98919 5.18842H10.0298L10.3696 5.43694C10.4 5.45723 10.4355 5.43187 10.4254 5.39637L10.2935 4.99569L10.3189 4.95512ZM2.33074 9.04808L2.67055 8.79956C2.70098 8.77927 2.68577 8.73363 2.65026 8.73363H2.2293L2.1938 8.70827L2.06193 8.30759C2.05179 8.27209 2.00614 8.27209 1.99093 8.30759L1.85906 8.70827L1.82356 8.73363H1.40259C1.36709 8.73363 1.35188 8.77927 1.38231 8.79956L1.72212 9.04808L1.73733 9.08865L1.60547 9.48933C1.59532 9.52483 1.63083 9.55019 1.66126 9.5299L2.00107 9.28138H2.04164L2.38146 9.5299C2.41189 9.55019 2.44739 9.52483 2.43725 9.48933L2.30538 9.08865L2.33074 9.04808ZM5.51584 9.04808L5.85566 8.79956C5.88609 8.77927 5.87087 8.73363 5.83537 8.73363H5.41441L5.3789 8.70827L5.24704 8.30759C5.23689 8.27209 5.19125 8.27209 5.17603 8.30759L5.04416 8.70827L5.00866 8.73363H4.5877C4.5522 8.73363 4.53698 8.77927 4.56741 8.79956L4.90723 9.04808L4.92244 9.08865L4.79057 9.48933C4.78043 9.52483 4.81593 9.55019 4.84636 9.5299L5.18618 9.28138H5.23689L5.57671 9.5299C5.60714 9.55019 5.64264 9.52483 5.6325 9.48933L5.50063 9.08865L5.51584 9.04808ZM8.70095 9.04808L9.04076 8.79956C9.07119 8.77927 9.05598 8.73363 9.02047 8.73363H8.59951L8.56401 8.70827L8.43214 8.30759C8.422 8.27209 8.37635 8.27209 8.36114 8.30759L8.22927 8.70827L8.19377 8.73363H7.77281C7.7373 8.73363 7.72209 8.77927 7.75252 8.79956L8.09233 9.04808L8.10755 9.08865L7.97568 9.48933C7.96554 9.52483 8.00104 9.55019 8.03147 9.5299L8.37128 9.28138H8.41186L8.75167 9.5299C8.7821 9.55019 8.8176 9.52483 8.80746 9.48933L8.67559 9.08865L8.70095 9.04808ZM0.738185 7.68883L1.078 7.44031C1.10843 7.42002 1.09321 7.37438 1.05771 7.37438H0.636748L0.601246 7.34902L0.469378 6.94834C0.459235 6.91284 0.413588 6.91284 0.398373 6.94834L0.266505 7.34902L0.231002 7.37438H-0.189959C-0.225462 7.37438 -0.240677 7.42002 -0.210246 7.44031L0.129566 7.68883L0.144781 7.72941L0.012914 8.13008C0.00277033 8.16558 0.0382731 8.19094 0.0687041 8.17065L0.408516 7.92214H0.449091L0.788903 8.17065C0.819334 8.19094 0.854837 8.16558 0.844693 8.13008L0.712826 7.72941L0.738185 7.68883ZM3.93343 7.68883L4.27325 7.44031C4.30368 7.42002 4.28846 7.37438 4.25296 7.37438H3.832L3.79649 7.34902L3.66463 6.94834C3.65448 6.91284 3.60884 6.91284 3.59362 6.94834L3.46175 7.34902L3.42625 7.37438H3.00529C2.96979 7.37438 2.95457 7.42002 2.985 7.44031L3.32482 7.68883L3.34003 7.72941L3.20816 8.13008C3.19802 8.16558 3.23352 8.19094 3.26395 8.17065L3.60377 7.92214H3.64434L3.98415 8.17065C4.01458 8.19094 4.05009 8.16558 4.03994 8.13008L3.90808 7.72941L3.93343 7.68883ZM7.12868 7.68883L7.4685 7.44031C7.49893 7.42002 7.48371 7.37438 7.44821 7.37438H7.02725L6.99174 7.34902L6.85988 6.94834C6.84973 6.91284 6.80409 6.91284 6.78887 6.94834L6.657 7.34902L6.6215 7.37438H6.20054C6.16504 7.37438 6.14982 7.42002 6.18025 7.44031L6.52006 7.68883L6.53528 7.72941L6.40341 8.13008C6.39327 8.16558 6.42877 8.19094 6.4592 8.17065L6.79902 7.92214H6.83959L7.1794 8.17065C7.20983 8.19094 7.24534 8.16558 7.23519 8.13008L7.10332 7.72941L7.12868 7.68883ZM10.3189 7.68883L10.6587 7.44031C10.6891 7.42002 10.6739 7.37438 10.6384 7.37438H10.2174L10.1819 7.34902L10.0501 6.94834C10.0399 6.91284 9.99426 6.91284 9.97905 6.94834L9.84718 7.34902L9.81168 7.37438H9.39072C9.35521 7.37438 9.34 7.42002 9.37043 7.44031L9.71024 7.68883L9.72546 7.72941L9.59359 8.13008C9.58345 8.16558 9.61895 8.19094 9.64938 8.17065L9.98919 7.92214H10.0298L10.3696 8.17065C10.4 8.19094 10.4355 8.16558 10.4254 8.13008L10.2935 7.72941L10.3189 7.68883ZM2.33074 11.7869L2.67055 11.5383C2.70098 11.5181 2.68577 11.4724 2.65026 11.4724H2.2293L2.1938 11.4471L2.06193 11.0464C2.05179 11.0109 2.00614 11.0109 1.99093 11.0464L1.85906 11.4471L1.82356 11.4724H1.40259C1.36709 11.4724 1.35188 11.5181 1.38231 11.5383L1.72212 11.7869L1.73733 11.8274L1.60547 12.2281C1.59532 12.2636 1.63083 12.289 1.66126 12.2687L2.00107 12.0202H2.04164L2.38146 12.2687C2.41189 12.289 2.44739 12.2636 2.43725 12.2281L2.30538 11.8274L2.33074 11.7869ZM5.51584 11.7869L5.85566 11.5383C5.88609 11.5181 5.87087 11.4724 5.83537 11.4724H5.41441L5.3789 11.4471L5.24704 11.0464C5.23689 11.0109 5.19125 11.0109 5.17603 11.0464L5.04416 11.4471L5.00866 11.4724H4.5877C4.5522 11.4724 4.53698 11.5181 4.56741 11.5383L4.90723 11.7869L4.92244 11.8274L4.79057 12.2281C4.78043 12.2636 4.81593 12.289 4.84636 12.2687L5.18618 12.0202H5.23689L5.57671 12.2687C5.60714 12.289 5.64264 12.2636 5.6325 12.2281L5.50063 11.8274L5.51584 11.7869ZM8.70095 11.7869L9.04076 11.5383C9.07119 11.5181 9.05598 11.4724 9.02047 11.4724H8.59951L8.56401 11.4471L8.43214 11.0464C8.422 11.0109 8.37635 11.0109 8.36114 11.0464L8.22927 11.4471L8.19377 11.4724H7.77281C7.7373 11.4724 7.72209 11.5181 7.75252 11.5383L8.09233 11.7869L8.10755 11.8274L7.97568 12.2281C7.96554 12.2636 8.00104 12.289 8.03147 12.2687L8.37128 12.0202H8.41186L8.75167 12.2687C8.7821 12.289 8.8176 12.2636 8.80746 12.2281L8.67559 11.8274L8.70095 11.7869ZM0.738185 10.4276L1.078 10.1791C1.10843 10.1588 1.09321 10.1132 1.05771 10.1132H0.636748L0.601246 10.0878L0.469378 9.68713C0.459235 9.65163 0.413588 9.65163 0.398373 9.68713L0.266505 10.0878L0.231002 10.1132H-0.189959C-0.225462 10.1132 -0.240677 10.1588 -0.210246 10.1791L0.129566 10.4276L0.144781 10.4682L0.012914 10.8689C0.00277033 10.9044 0.0382731 10.9297 0.0687041 10.9094L0.408516 10.6609H0.449091L0.788903 10.9094C0.819334 10.9297 0.854837 10.9044 0.844693 10.8689L0.712826 10.4682L0.738185 10.4276ZM3.93343 10.4276L4.27325 10.1791C4.30368 10.1588 4.28846 10.1132 4.25296 10.1132H3.832L3.79649 10.0878L3.66463 9.68713C3.65448 9.65163 3.60884 9.65163 3.59362 9.68713L3.46175 10.0878L3.42625 10.1132H3.00529C2.96979 10.1132 2.95457 10.1588 2.985 10.1791L3.32482 10.4276L3.34003 10.4682L3.20816 10.8689C3.19802 10.9044 3.23352 10.9297 3.26395 10.9094L3.60377 10.6609H3.64434L3.98415 10.9094C4.01458 10.9297 4.05009 10.9044 4.03994 10.8689L3.90808 10.4682L3.93343 10.4276ZM7.12868 10.4276L7.4685 10.1791C7.49893 10.1588 7.48371 10.1132 7.44821 10.1132H7.02725L6.99174 10.0878L6.85988 9.6922C6.84973 9.6567 6.80409 9.6567 6.78887 9.6922L6.657 10.0929L6.6215 10.1182H6.20054C6.16504 10.1182 6.14982 10.1639 6.18025 10.1842L6.52006 10.4327L6.53528 10.4733L6.40341 10.8739C6.39327 10.9094 6.42877 10.9348 6.4592 10.9145L6.79902 10.666H6.83959L7.1794 10.9145C7.20983 10.9348 7.24534 10.9094 7.23519 10.8739L7.10332 10.4733L7.12868 10.4276ZM10.3189 10.4276L10.6587 10.1791C10.6891 10.1588 10.6739 10.1132 10.6384 10.1132H10.2174L10.1819 10.0878L10.0551 9.6922C10.045 9.6567 9.99934 9.6567 9.98412 9.6922L9.85225 10.0929L9.81675 10.1182H9.39579C9.36029 10.1182 9.34507 10.1639 9.3755 10.1842L9.71531 10.4327L9.73053 10.4733L9.59866 10.8739C9.58852 10.9094 9.62402 10.9348 9.65445 10.9145L9.99426 10.666H10.0348L10.3747 10.9145C10.4051 10.9348 10.4406 10.9094 10.4304 10.8739L10.2986 10.4733L10.3189 10.4276ZM0.738185 13.1664L1.078 12.9179C1.10843 12.8976 1.09321 12.8519 1.05771 12.8519H0.636748L0.601246 12.8266L0.469378 12.4259C0.459235 12.3904 0.413588 12.3904 0.398373 12.4259L0.266505 12.8266L0.231002 12.8519H-0.189959C-0.225462 12.8519 -0.240677 12.8976 -0.210246 12.9179L0.129566 13.1664L0.144781 13.207L0.012914 13.6077C0.00277033 13.6432 0.0382731 13.6685 0.0687041 13.6482L0.408516 13.3997H0.449091L0.788903 13.6482C0.819334 13.6685 0.854837 13.6432 0.844693 13.6077L0.712826 13.207L0.738185 13.1664ZM3.93343 13.1664L4.27325 12.9179C4.30368 12.8976 4.28846 12.8519 4.25296 12.8519H3.832L3.79649 12.8266L3.66463 12.4259C3.65448 12.3904 3.60884 12.3904 3.59362 12.4259L3.46175 12.8266L3.42625 12.8519H3.00529C2.96979 12.8519 2.95457 12.8976 2.985 12.9179L3.32482 13.1664L3.34003 13.207L3.20816 13.6077C3.19802 13.6432 3.23352 13.6685 3.26395 13.6482L3.60377 13.3997H3.64434L3.98415 13.6482C4.01458 13.6685 4.05009 13.6432 4.03994 13.6077L3.90808 13.207L3.93343 13.1664ZM7.12868 13.1664L7.4685 12.9179C7.49893 12.8976 7.48371 12.8519 7.44821 12.8519H7.02725L6.99174 12.8266L6.85988 12.431C6.84973 12.3955 6.80409 12.3955 6.78887 12.431L6.657 12.8317L6.6215 12.857H6.20054C6.16504 12.857 6.14982 12.9027 6.18025 12.923L6.52006 13.1715L6.53528 13.212L6.40341 13.6127C6.39327 13.6482 6.42877 13.6736 6.4592 13.6533L6.79902 13.4048H6.83959L7.1794 13.6533C7.20983 13.6736 7.24534 13.6482 7.23519 13.6127L7.10332 13.212L7.12868 13.1664ZM10.3189 13.1664L10.6587 12.9179C10.6891 12.8976 10.6739 12.8519 10.6384 12.8519H10.2174L10.1819 12.8266L10.0551 12.431C10.045 12.3955 9.99934 12.3955 9.98412 12.431L9.85225 12.8317L9.81675 12.857H9.39579C9.36029 12.857 9.34507 12.9027 9.3755 12.923L9.71531 13.1715L9.73053 13.212L9.59866 13.6127C9.58852 13.6482 9.62402 13.6736 9.65445 13.6533L9.99426 13.4048H10.0348L10.3747 13.6533C10.4051 13.6736 10.4406 13.6482 10.4304 13.6127L10.2986 13.212L10.3189 13.1664ZM11.8911 3.57051L12.2309 3.32199C12.2614 3.3017 12.2462 3.25606 12.2107 3.25606H11.7897L11.7542 3.2307L11.6223 2.83002C11.6122 2.79452 11.5665 2.79452 11.5513 2.83002L11.4194 3.2307L11.3839 3.25606H10.963C10.9275 3.25606 10.9123 3.3017 10.9427 3.32199L11.2825 3.57051L11.2977 3.61108L11.1659 4.01176C11.1557 4.04726 11.1912 4.07262 11.2216 4.05233L11.5615 3.80381H11.602L11.9418 4.05233C11.9723 4.07262 12.0078 4.04726 11.9976 4.01176L11.8658 3.61108L11.8911 3.57051ZM13.5141 2.21633L13.8539 1.96781C13.8844 1.94753 13.8691 1.90188 13.8336 1.90188H13.4127L13.3772 1.87652L13.2453 1.47585C13.2352 1.44034 13.1895 1.44034 13.1743 1.47585L13.0424 1.87652L13.0069 1.90188H12.586C12.5505 1.90188 12.5352 1.94753 12.5657 1.96781L12.9055 2.21633L12.9207 2.25691L12.7888 2.65758C12.7787 2.69308 12.8142 2.71844 12.8446 2.69816L13.1844 2.44964H13.225L13.5648 2.69816C13.5953 2.71844 13.6308 2.69308 13.6206 2.65758L13.4888 2.25691L13.5141 2.21633ZM11.8911 6.3093L12.2309 6.06078C12.2614 6.04049 12.2462 5.99484 12.2107 5.99484H11.7897L11.7542 5.96948L11.6223 5.56881C11.6122 5.53331 11.5665 5.53331 11.5513 5.56881L11.4194 5.96948L11.3839 5.99484H10.963C10.9275 5.99484 10.9123 6.04049 10.9427 6.06078L11.2825 6.3093L11.2977 6.34987L11.1659 6.75054C11.1557 6.78605 11.1912 6.81141 11.2216 6.79112L11.5615 6.5426H11.602L11.9418 6.79112C11.9723 6.81141 12.0078 6.78605 11.9976 6.75054L11.8658 6.34987L11.8911 6.3093ZM13.5141 4.95512L13.8539 4.7066C13.8844 4.68631 13.8691 4.64066 13.8336 4.64066H13.4127L13.3772 4.61531L13.2453 4.21463C13.2352 4.17913 13.1895 4.17913 13.1743 4.21463L13.0424 4.61531L13.0069 4.64066H12.586C12.5505 4.64066 12.5352 4.68631 12.5657 4.7066L12.9055 4.95512L12.9207 4.99569L12.7888 5.39637C12.7787 5.43187 12.8142 5.45723 12.8446 5.43694L13.1844 5.18842H13.225L13.5648 5.43694C13.5953 5.45723 13.6308 5.43187 13.6206 5.39637L13.4888 4.99569L13.5141 4.95512ZM11.8911 9.04808L12.2309 8.79956C12.2614 8.77927 12.2462 8.73363 12.2107 8.73363H11.7897L11.7542 8.70827L11.6223 8.30759C11.6122 8.27209 11.5665 8.27209 11.5513 8.30759L11.4194 8.70827L11.3839 8.73363H10.963C10.9275 8.73363 10.9123 8.77927 10.9427 8.79956L11.2825 9.04808L11.2977 9.08865L11.1659 9.48933C11.1557 9.52483 11.1912 9.55019 11.2216 9.5299L11.5615 9.28138H11.602L11.9418 9.5299C11.9723 9.55019 12.0078 9.52483 11.9976 9.48933L11.8658 9.08865L11.8911 9.04808ZM13.5141 7.68883L13.8539 7.44031C13.8844 7.42002 13.8691 7.37438 13.8336 7.37438H13.4127L13.3772 7.34902L13.2453 6.94834C13.2352 6.91284 13.1895 6.91284 13.1743 6.94834L13.0424 7.34902L13.0069 7.37438H12.586C12.5505 7.37438 12.5352 7.42002 12.5657 7.44031L12.9055 7.68883L12.9207 7.72941L12.7888 8.13008C12.7787 8.16558 12.8142 8.19094 12.8446 8.17065L13.1844 7.92214H13.225L13.5648 8.17065C13.5953 8.19094 13.6308 8.16558 13.6206 8.13008L13.4888 7.72941L13.5141 7.68883ZM11.8911 11.7869L12.2309 11.5383C12.2614 11.5181 12.2462 11.4724 12.2107 11.4724H11.7897L11.7542 11.4471L11.6223 11.0464C11.6122 11.0109 11.5665 11.0109 11.5513 11.0464L11.4194 11.4471L11.3839 11.4724H10.963C10.9275 11.4724 10.9123 11.5181 10.9427 11.5383L11.2825 11.7869L11.2977 11.8274L11.1659 12.2281C11.1557 12.2636 11.1912 12.289 11.2216 12.2687L11.5615 12.0202H11.602L11.9418 12.2687C11.9723 12.289 12.0078 12.2636 11.9976 12.2281L11.8658 11.8274L11.8911 11.7869ZM13.5141 10.4276L13.8539 10.1791C13.8844 10.1588 13.8691 10.1132 13.8336 10.1132H13.4127L13.3772 10.0878L13.2453 9.68713C13.2352 9.65163 13.1895 9.65163 13.1743 9.68713L13.0424 10.0878L13.0069 10.1132H12.586C12.5505 10.1132 12.5352 10.1588 12.5657 10.1791L12.9055 10.4276L12.9207 10.4682L12.7888 10.8689C12.7787 10.9044 12.8142 10.9297 12.8446 10.9094L13.1844 10.6609H13.225L13.5648 10.9094C13.5953 10.9297 13.6308 10.9044 13.6206 10.8689L13.4888 10.4682L13.5141 10.4276ZM13.5141 13.1664L13.8539 12.9179C13.8844 12.8976 13.8691 12.8519 13.8336 12.8519H13.4127L13.3772 12.8266L13.2453 12.4259C13.2352 12.3904 13.1895 12.3904 13.1743 12.4259L13.0424 12.8266L13.0069 12.8519H12.586C12.5505 12.8519 12.5352 12.8976 12.5657 12.9179L12.9055 13.1664L12.9207 13.207L12.7888 13.6077C12.7787 13.6432 12.8142 13.6685 12.8446 13.6482L13.1844 13.3997H13.225L13.5648 13.6482C13.5953 13.6685 13.6308 13.6432 13.6206 13.6077L13.4888 13.207L13.5141 13.1664Z" fill="#F8F7F7"/>
</g>
</g>
<defs>
<clipPath id="clip0_84_99">
<rect width="25.9677" height="25.9677" fill="white" transform="translate(0.773438 0.5625)"/>
</clipPath>
</defs>
</svg>
