<svg width="61" height="22" viewBox="0 0 61 22" fill="none" xmlns="http://www.w3.org/2000/svg">
<mask id="mask0_84_62" style="mask-type:luminance" maskUnits="userSpaceOnUse" x="39" y="0" width="22" height="22">
<path d="M60.2713 0.140625H39V21.4119H60.2713V0.140625Z" fill="white"/>
</mask>
<g mask="url(#mask0_84_62)">
<path d="M42.4034 0.140625C40.5238 0.140625 39 1.66441 39 3.54403V18.0085C39 19.8881 40.5238 21.4119 42.4034 21.4119H48.9981V13.7861H46.1037V10.4908H48.9981V7.97922C48.9981 5.12214 50.7001 3.54403 53.304 3.54403C54.5513 3.54403 55.8558 3.76661 55.8558 3.76661V6.57207H54.4183C53.0022 6.57207 52.5605 7.45086 52.5605 8.3523V10.4908H55.7222L55.2168 13.7861H52.5605V21.4119H56.8679C58.7475 21.4119 60.2713 19.8881 60.2713 18.0085V3.54403C60.2713 1.66441 58.7475 0.140625 56.8679 0.140625H42.4034Z" fill="white"/>
</g>
<mask id="mask1_84_62" style="mask-type:luminance" maskUnits="userSpaceOnUse" x="0" y="0" width="22" height="22">
<path d="M21.2713 0.140625H0V21.4119H21.2713V0.140625Z" fill="white"/>
</mask>
<g mask="url(#mask1_84_62)">
<path fill-rule="evenodd" clip-rule="evenodd" d="M8.15914 0.148415C8.71903 0.142572 9.47388 0.140625 10.6419 0.140625C13.5309 0.140625 13.8926 0.153175 15.0317 0.207055C16.1624 0.257039 16.9355 0.439666 17.6132 0.701488C18.3115 0.971535 18.906 1.33722 19.4963 1.92708C20.0907 2.51694 20.4523 3.11112 20.7142 3.8174C20.9761 4.49035 21.1591 5.26738 21.209 6.39733C21.2349 6.98481 21.2506 7.36499 21.2598 7.99618C21.2684 8.58366 21.2713 9.38858 21.2713 10.7803C21.2713 13.6678 21.2589 14.0294 21.209 15.1635C21.1591 16.2936 20.9761 17.0663 20.7142 17.7433C20.4441 18.4414 20.0782 19.0356 19.488 19.6255C18.8977 20.2153 18.3031 20.581 17.6048 20.8511C16.9314 21.1129 16.154 21.2955 15.0234 21.3454C13.8886 21.3952 13.5269 21.4078 10.6377 21.4078C7.74867 21.4078 7.38698 21.3952 6.25206 21.3454C5.12145 21.2955 4.34821 21.1129 3.67061 20.8511C2.97224 20.581 2.37783 20.2153 1.78754 19.6255C1.19303 19.0356 0.83145 18.4414 0.557077 17.7392C0.295146 17.0663 0.112194 16.2893 0.0623182 15.1593C0.012442 14.025 0 13.6637 0 10.7763C0 7.88886 0.012442 7.52749 0.0623182 6.38911C0.112194 5.25894 0.295146 4.48624 0.557077 3.80918C0.83145 3.11112 1.19303 2.51694 1.78754 1.92708C2.37783 1.33289 2.97224 0.971534 3.67483 0.697378C4.34821 0.435555 5.12556 0.252711 6.25627 0.202943C6.93236 0.173299 7.33407 0.156854 8.15914 0.148415ZM18.6124 4.12899C18.6124 4.86318 18.0171 5.45845 17.2829 5.45845C16.5487 5.45845 15.9535 4.86318 15.9535 4.12899C15.9535 3.3948 16.5487 2.79954 17.2829 2.79954C18.0171 2.79954 18.6124 3.3948 18.6124 4.12899ZM15.9535 10.7763C15.9535 13.7132 13.5726 16.0941 10.6356 16.0941C7.69868 16.0941 5.31782 13.7132 5.31782 10.7763C5.31782 7.83931 7.69868 5.45845 10.6356 5.45845C13.5726 5.45845 15.9535 7.83931 15.9535 10.7763Z" fill="white"/>
</g>
</svg>
